<svg width="80" height="81" viewBox="0 0 80 81" fill="none" xmlns="http://www.w3.org/2000/svg">
<path d="M55.4067 42.3167L40.205 22.3106H42.1717C43.5717 22.3106 44.89 22.9641 45.7367 24.0794L57.5017 39.5625L69.2666 24.0794C70.1116 22.9641 71.43 22.3106 72.83 22.3106H74.7966L59.595 42.3167L75.5066 63.2565H73.54C72.14 63.2565 70.8216 62.603 69.975 61.4876L57.5 45.0709L45.025 61.4876C44.1783 62.6013 42.86 63.2565 41.46 63.2565H39.4933L55.4067 42.3167ZM6.66668 43.9839V45.2893C6.66668 52.2898 11.2933 58.6801 18.1133 60.2472C25.5117 61.9478 32.2633 58.1683 35.16 52.1748C35.61 51.2445 36.5467 50.6526 37.5783 50.6526H39.2917C37.0933 58.4133 29.9317 64.0884 21.4467 63.9884C11.295 63.8683 3.33334 55.144 3.33334 44.2206V43.9839V40.6495V39.4558C3.33334 30.4081 9.68667 22.3289 18.6183 20.8901C30.0917 19.0412 40 27.8539 40 38.9824V43.9839H6.66668ZM6.66668 40.6495H36.6667V38.9824C36.6667 29.5661 27.9967 22.1772 18.2067 24.3645C11.34 25.9 6.66668 32.317 6.66668 40.1661V40.6495Z" fill="url(#paint0_linear_54_54)"/>
<defs>
<linearGradient id="paint0_linear_54_54" x1="6.41834" y1="4.96523" x2="57.4674" y2="55.9985" gradientUnits="userSpaceOnUse">
<stop stop-color="#6D7479"/>
<stop offset="1" stop-color="#323538"/>
</linearGradient>
</defs>
</svg>
