<svg width="100" height="100" viewBox="0 0 100 100" fill="none" xmlns="http://www.w3.org/2000/svg">
<path d="M50 87.5C29.2893 87.5 12.5 70.7107 12.5 50V50C12.5 29.2893 29.2893 12.5 50 12.5V12.5C70.7107 12.5 87.5 29.2893 87.5 50V50C87.5 70.7107 70.7107 87.5 50 87.5V87.5Z" fill="#F7DF1E"/>
<path d="M61.5375 68.6396C62.9792 70.9813 64.5458 73.225 67.8646 73.225C70.6521 73.225 72.1146 71.8396 72.1146 69.923C72.1146 67.6292 70.6021 66.8146 67.5354 65.4792L65.8542 64.7625C61.0021 62.7042 57.775 60.125 57.775 54.6771C57.775 49.6563 61.6188 45.8355 67.625 45.8355C71.9021 45.8355 74.975 47.3167 77.1917 51.1959L71.9542 54.5438C70.8021 52.4855 69.5563 51.675 67.625 51.675C65.6542 51.675 64.4063 52.9188 64.4063 54.5438C64.4063 56.5521 65.6563 57.3646 68.5417 58.6084L70.2229 59.325C75.9417 61.7605 79.1667 64.248 79.1667 69.8396C79.1667 75.8646 74.4083 79.1667 68.0208 79.1667C61.7729 79.1667 58.225 76.0313 56.25 72.15L61.5375 68.6396ZM37.4 68.8105C38.4542 70.698 40.0563 72.15 42.3604 72.15C44.5646 72.15 45.8333 71.2792 45.8333 67.8938V45.8334H52.7771V68.9605C52.7771 75.975 48.7083 79.1667 42.7667 79.1667C37.3979 79.1667 33.5229 75.5292 31.9438 72.15L37.4 68.8105Z" fill="#000001"/>
</svg>
