<svg width="80" height="81" viewBox="0 0 80 81" fill="none" xmlns="http://www.w3.org/2000/svg">
<path d="M40.0117 76.2716C39.055 76.2716 38.1067 76.0216 37.2683 75.5381L28.535 70.3648C27.23 69.6346 27.8667 69.3762 28.2967 69.2278C30.0367 68.6193 30.3883 68.4809 32.245 67.4256C32.44 67.3139 32.695 67.3539 32.895 67.4723L39.605 71.4552C39.8467 71.5869 40.1917 71.5869 40.415 71.4552L66.5767 56.3488C66.8184 56.2105 66.9767 55.9304 66.9767 55.642V25.4443C66.9767 25.1426 66.82 24.8742 66.5717 24.7241L40.4217 9.62948C40.18 9.4861 39.8583 9.4861 39.6167 9.62948L13.47 24.7225C13.2166 24.8658 13.055 25.1476 13.055 25.436V55.6353C13.055 55.9237 13.2116 56.1988 13.4616 56.3355L20.6267 60.4751C24.5167 62.4207 26.8933 60.1283 26.8933 57.8226V28.0185C26.8933 27.5933 27.2267 27.2649 27.6533 27.2649H30.9667C31.38 27.2649 31.72 27.5917 31.72 28.0185V57.8376C31.72 63.0259 28.8917 66.0068 23.9733 66.0068C22.46 66.0068 21.2683 66.0068 17.9417 64.3696L11.0783 60.4134C9.38165 59.4298 8.33331 57.5942 8.33331 55.637V25.4377C8.33331 23.4721 9.38165 21.6382 11.0766 20.6679L37.2667 5.55489C38.9233 4.61793 41.1233 4.61793 42.7683 5.55489L68.925 20.6745C70.6117 21.6498 71.6667 23.4787 71.6667 25.4443V55.6436C71.6667 57.6026 70.6117 59.4298 68.9234 60.4134L42.7667 75.5247C41.9283 76.0099 40.9783 76.2583 40.01 76.2583" fill="#21A366"/>
<path d="M48.0933 55.462C36.6467 55.462 34.2467 50.2054 34.2467 45.7973C34.2467 45.3789 34.585 45.0438 35.005 45.0438H38.385C38.7583 45.0438 39.0733 45.3155 39.1317 45.684C39.6417 49.1284 41.1617 50.8656 48.0833 50.8656C53.5967 50.8656 55.9417 49.6202 55.9417 46.6943C55.9417 45.0104 55.2733 43.7601 46.7083 42.9215C39.5433 42.2146 35.1167 40.6358 35.1167 34.904C35.1167 29.624 39.57 26.4797 47.0283 26.4797C55.405 26.4797 59.5567 29.389 60.08 35.6376C60.1 35.8543 60.0217 36.0627 59.8767 36.2211C59.7333 36.3711 59.53 36.4628 59.32 36.4628H55.9217C55.5683 36.4628 55.26 36.2144 55.1883 35.8726C54.37 32.2498 52.3917 31.0912 47.015 31.0912C40.9967 31.0912 40.2967 33.1868 40.2967 34.7589C40.2967 36.6645 41.1217 37.2214 49.2417 38.2967C57.2833 39.3637 61.1017 40.8708 61.1017 46.5242C61.1017 52.2227 56.3467 55.492 48.0567 55.492" fill="#21A366"/>
</svg>
