<svg width="79" height="81" viewBox="0 0 79 81" fill="none" xmlns="http://www.w3.org/2000/svg">
<g clip-path="url(#clip0_54_60)">
<path d="M72.8841 60.7134L45.5682 3.019C44.161 0.0464178 40.076 -0.198658 38.3315 2.58553L8.04154 50.9471C7.38815 51.9891 7.4079 53.3245 8.08927 54.3481L23.3478 77.2519C24.2941 78.6723 26.0371 79.3142 27.6648 78.8407L70.361 66.4068C72.759 65.7083 73.9621 62.9925 72.8841 60.7134ZM66.8505 62.7874L30.9417 72.9722C30.1105 73.2089 29.3287 72.4637 29.5098 71.6084L42.2403 11.4283C42.4691 10.3446 43.924 10.1695 44.398 11.1665L67.8758 60.55C68.284 61.457 67.7985 62.519 66.8505 62.7874Z" fill="#4DB6AC"/>
</g>
<defs>
<clipPath id="clip0_54_60">
<rect width="79" height="80.0246" fill="white" transform="translate(0 0.636597)"/>
</clipPath>
</defs>
</svg>
