<svg width="70" height="71" viewBox="0 0 70 71" fill="none" xmlns="http://www.w3.org/2000/svg">
<path d="M35 50.1503C16.1875 50.1503 1.45833 43.7316 1.45833 35.5624C1.45833 27.3933 16.1875 20.9746 35 20.9746C53.8125 20.9746 68.5417 27.3933 68.5417 35.5624C68.5417 43.7316 53.8125 50.1503 35 50.1503ZM35 23.8922C16.625 23.8922 4.375 29.8732 4.375 35.5624C4.375 41.2517 16.625 47.2327 35 47.2327C53.375 47.2327 65.625 41.2517 65.625 35.5624C65.625 29.8732 53.375 23.8922 35 23.8922Z" fill="#80DEEA"/>
<path d="M22.0208 65.6134C20.5625 65.6134 19.3958 65.3216 18.2292 64.5922C11.0833 60.5076 12.9792 44.6069 22.3125 28.2685C26.6875 20.6829 32.0833 14.2642 37.3333 10.1796C43.0209 5.80327 48.125 4.49037 51.625 6.53266C55.2709 8.57496 56.5834 13.6807 55.7084 20.8287C54.8334 27.5391 51.9167 35.4166 47.5417 43.0022C43.1667 50.5879 37.7708 57.0065 32.5208 61.0911C28.7292 64.0087 25.0833 65.6134 22.0208 65.6134ZM47.9792 8.42908C45.6459 8.42908 42.5834 9.74199 39.2292 12.3678C34.2708 16.3065 29.1667 22.4334 24.9375 29.7273C15.75 45.628 14.875 59.3406 19.6875 62.1123C22.1667 63.5711 26.25 62.2582 30.7708 58.7571C35.7292 54.8184 40.8333 48.6915 45.0625 41.3976C49.2917 34.1037 52.0625 26.6639 52.9375 20.3911C53.6667 14.556 52.7917 10.4714 50.3125 9.01259C49.5834 8.72084 48.8542 8.42908 47.9792 8.42908Z" fill="#80DEEA"/>
<path d="M48.125 65.6134C40.8333 65.6134 30.3333 56.7148 22.4583 42.8564C12.9792 26.518 11.0833 10.6173 18.2292 6.53266C25.375 2.44807 38.2083 11.9302 47.6875 28.2685C52.0625 35.8542 54.9792 43.7316 55.8542 50.442C56.875 57.5901 55.4167 62.5499 51.7708 64.7381C50.6042 65.3216 49.4375 65.6134 48.125 65.6134ZM19.6875 9.01259C14.875 11.7843 15.75 25.4968 24.9375 41.3976C34.125 57.2983 45.5 64.884 50.3125 62.1123C52.7917 60.6535 53.6667 56.5689 52.9375 50.7338C52.0625 44.461 49.2917 37.0212 45.0625 29.7273C35.875 13.8266 24.5 6.24091 19.6875 9.01259Z" fill="#80DEEA"/>
<path d="M35 41.3976C38.2217 41.3976 40.8333 38.7851 40.8333 35.5624C40.8333 32.3398 38.2217 29.7273 35 29.7273C31.7783 29.7273 29.1667 32.3398 29.1667 35.5624C29.1667 38.7851 31.7783 41.3976 35 41.3976Z" fill="#80DEEA"/>
</svg>
