<svg width="75" height="76" viewBox="0 0 75 76" fill="none" xmlns="http://www.w3.org/2000/svg">
<g clip-path="url(#clip0_54_63)">
<path d="M37.5 15.6503C27.5 15.6503 21.25 20.6502 18.75 30.6502C22.5 25.6502 26.875 23.7762 31.875 25.025C34.7281 25.7378 36.7672 27.8087 39.025 30.1C42.7 33.8309 46.9547 38.1509 56.25 38.1509C66.25 38.1509 72.5 33.151 75 23.1495C71.25 28.1494 66.875 30.025 61.875 28.7762C59.0234 28.0635 56.9844 25.9925 54.7266 23.7012C51.05 19.9688 46.7937 15.6503 37.5 15.6503ZM18.75 38.1509C8.75 38.1509 2.5 43.1509 0 53.1524C3.75 48.1525 8.125 46.2769 13.125 47.5273C15.9766 48.2416 18.0156 50.3109 20.2734 52.6007C23.95 56.3331 28.2063 60.6532 37.5 60.6532C47.5 60.6532 53.75 55.6532 56.25 45.6517C52.5 50.6517 48.125 52.5273 43.125 51.2769C40.2719 50.5641 38.2328 48.4932 35.975 46.2034C32.3 42.471 28.0453 38.1509 18.75 38.1509Z" fill="#00ACC1"/>
</g>
<defs>
<clipPath id="clip0_54_63">
<rect width="75" height="75.0231" fill="white" transform="translate(0 0.639404)"/>
</clipPath>
</defs>
</svg>
